<?xml version="1.0" encoding="UTF-8"?>
<svg width="77px" height="60px" viewBox="0 0 77 60" version="1.1" xmlns="http://www.w3.org/2000/svg" xmlns:xlink="http://www.w3.org/1999/xlink">
    <!-- Generator: Sketch 60.1 (88133) - https://sketch.com -->
    <title>noun_Upload_1829078 (1)</title>
    <desc>Created with Sketch.</desc>
    <g id="Page-1" stroke="none" stroke-width="1" fill="none" fill-rule="evenodd">
        <g id="noun_Upload_1829078-(1)" fill="#000000" fill-rule="nonzero">
            <path d="M75.1,57.1 L39.8,57.1 L39.8,53.8 C39.8,53.8 39.8,53.7 39.8,53.7 L39.8,4.9 L58.4,22.9 C58.9,23.4 59.7,23.4 60.2,22.9 C60.7,22.4 60.7,21.6 60.2,21.1 L39.4,1 C39.3,0.9 39.2,0.9 39.2,0.9 C39.1,0.9 39.1,0.8 39,0.8 C39,0.8 38.9,0.8 38.9,0.8 C38.8,0.8 38.7,0.8 38.6,0.8 C38.4,0.8 38.3,0.8 38.2,0.8 C38.2,0.8 38.1,0.8 38.1,0.8 C38.1,0.8 38,0.9 38,0.9 C37.9,1 37.8,1 37.7,1.1 L16.9,21.1 C16.4,21.6 16.4,22.4 16.9,22.9 C17.4,23.4 18.2,23.4 18.7,22.9 L37.3,4.9 L37.3,57.1 L1.9,57.1 C1.2,57.1 0.6,57.7 0.6,58.4 C0.6,59.1 1.2,59.7 1.9,59.7 L75.1,59.7 C75.8,59.7 76.4,59.1 76.4,58.4 C76.4,57.7 75.8,57.1 75.1,57.1 Z" id="Path"></path>
        </g>
    </g>
</svg>